<?xml version="1.0" standalone="no"?>
<svg xmlns:xlink="http://www.w3.org/1999/xlink" id="wave" style="transform:rotate(0deg); transition: 0.3s" viewBox="0 0 1440 340" version="1.1" xmlns="http://www.w3.org/2000/svg"><defs><linearGradient id="sw-gradient-0" x1="0" x2="0" y1="1" y2="0"><stop stop-color="rgba(134, 109, 126, 1)" offset="0%"/><stop stop-color="rgba(224.197, 217.456, 229.173, 1)" offset="100%"/></linearGradient></defs><path style="transform:translate(0, 0px); opacity:1" fill="url(#sw-gradient-0)" d="M0,204L40,198.3C80,193,160,181,240,158.7C320,136,400,102,480,107.7C560,113,640,159,720,164.3C800,170,880,136,960,136C1040,136,1120,170,1200,187C1280,204,1360,204,1440,170C1520,136,1600,68,1680,34C1760,0,1840,0,1920,0C2000,0,2080,0,2160,0C2240,0,2320,0,2400,0C2480,0,2560,0,2640,28.3C2720,57,2800,113,2880,164.3C2960,215,3040,261,3120,283.3C3200,306,3280,306,3360,283.3C3440,261,3520,215,3600,170C3680,125,3760,79,3840,62.3C3920,45,4000,57,4080,90.7C4160,125,4240,181,4320,209.7C4400,238,4480,238,4560,238C4640,238,4720,238,4800,215.3C4880,193,4960,147,5040,113.3C5120,79,5200,57,5280,73.7C5360,91,5440,147,5520,153C5600,159,5680,113,5720,90.7L5760,68L5760,340L5720,340C5680,340,5600,340,5520,340C5440,340,5360,340,5280,340C5200,340,5120,340,5040,340C4960,340,4880,340,4800,340C4720,340,4640,340,4560,340C4480,340,4400,340,4320,340C4240,340,4160,340,4080,340C4000,340,3920,340,3840,340C3760,340,3680,340,3600,340C3520,340,3440,340,3360,340C3280,340,3200,340,3120,340C3040,340,2960,340,2880,340C2800,340,2720,340,2640,340C2560,340,2480,340,2400,340C2320,340,2240,340,2160,340C2080,340,2000,340,1920,340C1840,340,1760,340,1680,340C1600,340,1520,340,1440,340C1360,340,1280,340,1200,340C1120,340,1040,340,960,340C880,340,800,340,720,340C640,340,560,340,480,340C400,340,320,340,240,340C160,340,80,340,40,340L0,340Z"/></svg>