<?xml version="1.0" standalone="no"?>
<svg xmlns:xlink="http://www.w3.org/1999/xlink" id="wave" style="transform:rotate(0deg); transition: 0.3s" viewBox="0 0 1440 270" version="1.1" xmlns="http://www.w3.org/2000/svg"><defs><linearGradient id="sw-gradient-0" x1="0" x2="0" y1="1" y2="0"><stop stop-color="rgba(181, 164, 179, 1)" offset="0%"/><stop stop-color="rgba(220.066, 202.602, 218.011, 1)" offset="100%"/></linearGradient></defs><path style="transform:translate(0, 0px); opacity:1" fill="url(#sw-gradient-0)" d="M0,243L30,207C60,171,120,99,180,76.5C240,54,300,81,360,112.5C420,144,480,180,540,198C600,216,660,216,720,189C780,162,840,108,900,108C960,108,1020,162,1080,153C1140,144,1200,72,1260,76.5C1320,81,1380,162,1440,198C1500,234,1560,225,1620,225C1680,225,1740,234,1800,238.5C1860,243,1920,243,1980,243C2040,243,2100,243,2160,238.5C2220,234,2280,225,2340,220.5C2400,216,2460,216,2520,184.5C2580,153,2640,90,2700,72C2760,54,2820,81,2880,99C2940,117,3000,126,3060,135C3120,144,3180,153,3240,157.5C3300,162,3360,162,3420,175.5C3480,189,3540,216,3600,189C3660,162,3720,81,3780,40.5C3840,0,3900,0,3960,31.5C4020,63,4080,126,4140,148.5C4200,171,4260,153,4290,144L4320,135L4320,270L4290,270C4260,270,4200,270,4140,270C4080,270,4020,270,3960,270C3900,270,3840,270,3780,270C3720,270,3660,270,3600,270C3540,270,3480,270,3420,270C3360,270,3300,270,3240,270C3180,270,3120,270,3060,270C3000,270,2940,270,2880,270C2820,270,2760,270,2700,270C2640,270,2580,270,2520,270C2460,270,2400,270,2340,270C2280,270,2220,270,2160,270C2100,270,2040,270,1980,270C1920,270,1860,270,1800,270C1740,270,1680,270,1620,270C1560,270,1500,270,1440,270C1380,270,1320,270,1260,270C1200,270,1140,270,1080,270C1020,270,960,270,900,270C840,270,780,270,720,270C660,270,600,270,540,270C480,270,420,270,360,270C300,270,240,270,180,270C120,270,60,270,30,270L0,270Z"/></svg>