<?xml version="1.0" standalone="no"?>
<svg xmlns:xlink="http://www.w3.org/1999/xlink" id="wave" style="transform:rotate(0deg); transition: 0.3s" viewBox="0 0 1440 110" version="1.1" xmlns="http://www.w3.org/2000/svg"><defs><linearGradient id="sw-gradient-0" x1="0" x2="0" y1="1" y2="0"><stop stop-color="rgba(181, 164, 179, 1)" offset="0%"/><stop stop-color="rgba(205.401, 192.356, 206.405, 1)" offset="100%"/></linearGradient></defs><path style="transform:translate(0, 0px); opacity:1" fill="url(#sw-gradient-0)" d="M0,99L10,91.7C20,84,40,70,60,64.2C80,59,100,62,120,53.2C140,44,160,22,180,23.8C200,26,220,51,240,56.8C260,62,280,48,300,45.8C320,44,340,55,360,60.5C380,66,400,66,420,64.2C440,62,460,59,480,58.7C500,59,520,62,540,62.3C560,62,580,59,600,60.5C620,62,640,70,660,73.3C680,77,700,77,720,69.7C740,62,760,48,780,45.8C800,44,820,55,840,64.2C860,73,880,81,900,82.5C920,84,940,81,960,66C980,51,1000,26,1020,29.3C1040,33,1060,66,1080,75.2C1100,84,1120,70,1140,62.3C1160,55,1180,55,1200,45.8C1220,37,1240,18,1260,11C1280,4,1300,7,1320,22C1340,37,1360,62,1380,75.2C1400,88,1420,88,1430,88L1440,88L1440,110L1430,110C1420,110,1400,110,1380,110C1360,110,1340,110,1320,110C1300,110,1280,110,1260,110C1240,110,1220,110,1200,110C1180,110,1160,110,1140,110C1120,110,1100,110,1080,110C1060,110,1040,110,1020,110C1000,110,980,110,960,110C940,110,920,110,900,110C880,110,860,110,840,110C820,110,800,110,780,110C760,110,740,110,720,110C700,110,680,110,660,110C640,110,620,110,600,110C580,110,560,110,540,110C520,110,500,110,480,110C460,110,440,110,420,110C400,110,380,110,360,110C340,110,320,110,300,110C280,110,260,110,240,110C220,110,200,110,180,110C160,110,140,110,120,110C100,110,80,110,60,110C40,110,20,110,10,110L0,110Z"/></svg>