<?xml version="1.0" standalone="no"?>
<svg xmlns:xlink="http://www.w3.org/1999/xlink" id="wave" style="transform:rotate(0deg); transition: 0.3s" viewBox="0 0 1440 190" version="1.1" xmlns="http://www.w3.org/2000/svg"><defs><linearGradient id="sw-gradient-0" x1="0" x2="0" y1="1" y2="0"><stop stop-color="rgba(181, 164, 179, 1)" offset="0%"/><stop stop-color="rgba(205.401, 192.356, 206.405, 1)" offset="100%"/></linearGradient></defs><path style="transform:translate(0, 0px); opacity:1" fill="url(#sw-gradient-0)" d="M0,57L30,69.7C60,82,120,108,180,101.3C240,95,300,57,360,47.5C420,38,480,57,540,72.8C600,89,660,101,720,98.2C780,95,840,76,900,63.3C960,51,1020,44,1080,60.2C1140,76,1200,114,1260,123.5C1320,133,1380,114,1440,101.3C1500,89,1560,82,1620,95C1680,108,1740,139,1800,136.2C1860,133,1920,95,1980,66.5C2040,38,2100,19,2160,9.5C2220,0,2280,0,2340,6.3C2400,13,2460,25,2520,53.8C2580,82,2640,127,2700,123.5C2760,120,2820,70,2880,66.5C2940,63,3000,108,3060,104.5C3120,101,3180,51,3240,53.8C3300,57,3360,114,3420,117.2C3480,120,3540,70,3600,47.5C3660,25,3720,32,3780,44.3C3840,57,3900,76,3960,88.7C4020,101,4080,108,4140,95C4200,82,4260,51,4290,34.8L4320,19L4320,190L4290,190C4260,190,4200,190,4140,190C4080,190,4020,190,3960,190C3900,190,3840,190,3780,190C3720,190,3660,190,3600,190C3540,190,3480,190,3420,190C3360,190,3300,190,3240,190C3180,190,3120,190,3060,190C3000,190,2940,190,2880,190C2820,190,2760,190,2700,190C2640,190,2580,190,2520,190C2460,190,2400,190,2340,190C2280,190,2220,190,2160,190C2100,190,2040,190,1980,190C1920,190,1860,190,1800,190C1740,190,1680,190,1620,190C1560,190,1500,190,1440,190C1380,190,1320,190,1260,190C1200,190,1140,190,1080,190C1020,190,960,190,900,190C840,190,780,190,720,190C660,190,600,190,540,190C480,190,420,190,360,190C300,190,240,190,180,190C120,190,60,190,30,190L0,190Z"/></svg>