<?xml version="1.0" standalone="no"?>
<svg xmlns:xlink="http://www.w3.org/1999/xlink" id="wave" style="transform:rotate(0deg); transition: 0.3s" viewBox="0 0 1440 200" version="1.1" xmlns="http://www.w3.org/2000/svg"><defs><linearGradient id="sw-gradient-0" x1="0" x2="0" y1="1" y2="0"><stop stop-color="rgba(181, 164, 179, 1)" offset="0%"/><stop stop-color="rgba(206.405, 192.356, 204.752, 0.72)" offset="100%"/></linearGradient></defs><path style="transform:translate(0, 0px); opacity:1" fill="url(#sw-gradient-0)" d="M0,100L24,100C48,100,96,100,144,106.7C192,113,240,127,288,126.7C336,127,384,113,432,93.3C480,73,528,47,576,43.3C624,40,672,60,720,70C768,80,816,80,864,93.3C912,107,960,133,1008,130C1056,127,1104,93,1152,86.7C1200,80,1248,100,1296,110C1344,120,1392,120,1440,110C1488,100,1536,80,1584,60C1632,40,1680,20,1728,23.3C1776,27,1824,53,1872,63.3C1920,73,1968,67,2016,76.7C2064,87,2112,113,2160,113.3C2208,113,2256,87,2304,70C2352,53,2400,47,2448,63.3C2496,80,2544,120,2592,130C2640,140,2688,120,2736,100C2784,80,2832,60,2880,70C2928,80,2976,120,3024,120C3072,120,3120,80,3168,70C3216,60,3264,80,3312,93.3C3360,107,3408,113,3432,116.7L3456,120L3456,200L3432,200C3408,200,3360,200,3312,200C3264,200,3216,200,3168,200C3120,200,3072,200,3024,200C2976,200,2928,200,2880,200C2832,200,2784,200,2736,200C2688,200,2640,200,2592,200C2544,200,2496,200,2448,200C2400,200,2352,200,2304,200C2256,200,2208,200,2160,200C2112,200,2064,200,2016,200C1968,200,1920,200,1872,200C1824,200,1776,200,1728,200C1680,200,1632,200,1584,200C1536,200,1488,200,1440,200C1392,200,1344,200,1296,200C1248,200,1200,200,1152,200C1104,200,1056,200,1008,200C960,200,912,200,864,200C816,200,768,200,720,200C672,200,624,200,576,200C528,200,480,200,432,200C384,200,336,200,288,200C240,200,192,200,144,200C96,200,48,200,24,200L0,200Z"/><defs><linearGradient id="sw-gradient-1" x1="0" x2="0" y1="1" y2="0"><stop stop-color="rgba(181, 164, 179, 1)" offset="0%"/><stop stop-color="rgba(163.146, 152.963, 161.948, 1)" offset="100%"/></linearGradient></defs><path style="transform:translate(0, 50px); opacity:0.9" fill="url(#sw-gradient-1)" d="M0,20L24,30C48,40,96,60,144,83.3C192,107,240,133,288,123.3C336,113,384,67,432,70C480,73,528,127,576,150C624,173,672,167,720,140C768,113,816,67,864,40C912,13,960,7,1008,33.3C1056,60,1104,120,1152,146.7C1200,173,1248,167,1296,163.3C1344,160,1392,160,1440,133.3C1488,107,1536,53,1584,36.7C1632,20,1680,40,1728,70C1776,100,1824,140,1872,143.3C1920,147,1968,113,2016,83.3C2064,53,2112,27,2160,33.3C2208,40,2256,80,2304,106.7C2352,133,2400,147,2448,126.7C2496,107,2544,53,2592,40C2640,27,2688,53,2736,60C2784,67,2832,53,2880,40C2928,27,2976,13,3024,6.7C3072,0,3120,0,3168,6.7C3216,13,3264,27,3312,50C3360,73,3408,107,3432,123.3L3456,140L3456,200L3432,200C3408,200,3360,200,3312,200C3264,200,3216,200,3168,200C3120,200,3072,200,3024,200C2976,200,2928,200,2880,200C2832,200,2784,200,2736,200C2688,200,2640,200,2592,200C2544,200,2496,200,2448,200C2400,200,2352,200,2304,200C2256,200,2208,200,2160,200C2112,200,2064,200,2016,200C1968,200,1920,200,1872,200C1824,200,1776,200,1728,200C1680,200,1632,200,1584,200C1536,200,1488,200,1440,200C1392,200,1344,200,1296,200C1248,200,1200,200,1152,200C1104,200,1056,200,1008,200C960,200,912,200,864,200C816,200,768,200,720,200C672,200,624,200,576,200C528,200,480,200,432,200C384,200,336,200,288,200C240,200,192,200,144,200C96,200,48,200,24,200L0,200Z"/></svg>