<?xml version="1.0" standalone="no"?>
<svg xmlns:xlink="http://www.w3.org/1999/xlink" id="wave" style="transform:rotate(0deg); transition: 0.3s" viewBox="0 0 1440 180" version="1.1" xmlns="http://www.w3.org/2000/svg"><defs><linearGradient id="sw-gradient-0" x1="0" x2="0" y1="1" y2="0"><stop stop-color="rgba(181, 164, 179, 1)" offset="0%"/><stop stop-color="rgba(220.066, 202.602, 218.011, 1)" offset="100%"/></linearGradient></defs><path style="transform:translate(0, 0px); opacity:1" fill="url(#sw-gradient-0)" d="M0,0L34.3,0C68.6,0,137,0,206,6C274.3,12,343,24,411,45C480,66,549,96,617,102C685.7,108,754,90,823,75C891.4,60,960,48,1029,42C1097.1,36,1166,36,1234,36C1302.9,36,1371,36,1440,51C1508.6,66,1577,96,1646,102C1714.3,108,1783,90,1851,78C1920,66,1989,60,2057,63C2125.7,66,2194,78,2263,87C2331.4,96,2400,102,2469,90C2537.1,78,2606,48,2674,33C2742.9,18,2811,18,2880,30C2948.6,42,3017,66,3086,90C3154.3,114,3223,138,3291,126C3360,114,3429,66,3497,39C3565.7,12,3634,6,3703,6C3771.4,6,3840,12,3909,21C3977.1,30,4046,42,4114,51C4182.9,60,4251,66,4320,72C4388.6,78,4457,84,4526,72C4594.3,60,4663,30,4731,30C4800,30,4869,60,4903,75L4937.1,90L4937.1,180L4902.9,180C4868.6,180,4800,180,4731,180C4662.9,180,4594,180,4526,180C4457.1,180,4389,180,4320,180C4251.4,180,4183,180,4114,180C4045.7,180,3977,180,3909,180C3840,180,3771,180,3703,180C3634.3,180,3566,180,3497,180C3428.6,180,3360,180,3291,180C3222.9,180,3154,180,3086,180C3017.1,180,2949,180,2880,180C2811.4,180,2743,180,2674,180C2605.7,180,2537,180,2469,180C2400,180,2331,180,2263,180C2194.3,180,2126,180,2057,180C1988.6,180,1920,180,1851,180C1782.9,180,1714,180,1646,180C1577.1,180,1509,180,1440,180C1371.4,180,1303,180,1234,180C1165.7,180,1097,180,1029,180C960,180,891,180,823,180C754.3,180,686,180,617,180C548.6,180,480,180,411,180C342.9,180,274,180,206,180C137.1,180,69,180,34,180L0,180Z"/></svg>